<mxfile host="app.diagrams.net" modified="2023-06-28T17:54:36.178Z" agent="Mozilla/5.0 (Macintosh; Intel Mac OS X 10_15_7) AppleWebKit/605.1.15 (KHTML, like Gecko) Version/16.5.1 Safari/605.1.15" etag="Tk78fYxXyZ9e3i_IyaR2" version="21.5.2" type="device">
  <diagram name="Page-1" id="A-i-45VTeui9rrHMC6Xb">
    <mxGraphModel dx="953" dy="777" grid="1" gridSize="10" guides="1" tooltips="1" connect="1" arrows="1" fold="1" page="1" pageScale="1" pageWidth="827" pageHeight="1169" math="0" shadow="0">
      <root>
        <mxCell id="0" />
        <mxCell id="1" parent="0" />
        <mxCell id="DAvnv6Tbrnz1TVsuFwB--2" value="Assets.xcassets" style="rounded=1;whiteSpace=wrap;html=1;" vertex="1" parent="1">
          <mxGeometry x="120" y="320" width="120" height="60" as="geometry" />
        </mxCell>
        <mxCell id="DAvnv6Tbrnz1TVsuFwB--3" value="Icons" style="rounded=1;whiteSpace=wrap;html=1;" vertex="1" parent="1">
          <mxGeometry x="370" y="220" width="120" height="60" as="geometry" />
        </mxCell>
        <mxCell id="DAvnv6Tbrnz1TVsuFwB--4" value="Colors" style="rounded=1;whiteSpace=wrap;html=1;" vertex="1" parent="1">
          <mxGeometry x="370" y="440" width="120" height="60" as="geometry" />
        </mxCell>
        <mxCell id="DAvnv6Tbrnz1TVsuFwB--5" value="" style="endArrow=classic;html=1;rounded=0;exitX=0.5;exitY=0;exitDx=0;exitDy=0;entryX=0;entryY=0.5;entryDx=0;entryDy=0;" edge="1" parent="1" source="DAvnv6Tbrnz1TVsuFwB--2" target="DAvnv6Tbrnz1TVsuFwB--3">
          <mxGeometry width="50" height="50" relative="1" as="geometry">
            <mxPoint x="390" y="430" as="sourcePoint" />
            <mxPoint x="440" y="380" as="targetPoint" />
            <Array as="points">
              <mxPoint x="180" y="250" />
            </Array>
          </mxGeometry>
        </mxCell>
        <mxCell id="DAvnv6Tbrnz1TVsuFwB--6" value="" style="endArrow=classic;html=1;rounded=0;exitX=0.5;exitY=1;exitDx=0;exitDy=0;entryX=0;entryY=0.5;entryDx=0;entryDy=0;" edge="1" parent="1" source="DAvnv6Tbrnz1TVsuFwB--2" target="DAvnv6Tbrnz1TVsuFwB--4">
          <mxGeometry width="50" height="50" relative="1" as="geometry">
            <mxPoint x="190" y="330" as="sourcePoint" />
            <mxPoint x="380" y="260" as="targetPoint" />
            <Array as="points">
              <mxPoint x="180" y="470" />
            </Array>
          </mxGeometry>
        </mxCell>
      </root>
    </mxGraphModel>
  </diagram>
</mxfile>
